<svg width="111" height="23" viewBox="0 0 111 23" fill="none" xmlns="http://www.w3.org/2000/svg">
<path d="M107.065 0V22.1757H110.737V0H107.065ZM97.6366 19.4567C95.4473 19.4567 93.5757 17.7264 93.5757 14.6543C93.5757 11.5822 95.4473 9.78131 97.6366 9.78131C99.8259 9.78131 101.662 11.5822 101.662 14.6543C101.662 17.7264 99.8259 19.4567 97.6366 19.4567ZM97.6366 22.7054C101.98 22.7054 105.476 19.2448 105.476 14.619C105.476 9.99318 102.015 6.53265 97.6366 6.53265C93.2579 6.53265 89.7621 9.99318 89.7621 14.619C89.7621 19.2448 93.2932 22.7054 97.6366 22.7054ZM80.6517 19.4567C78.4624 19.4567 76.5909 17.7264 76.5909 14.6543C76.5909 11.5822 78.4624 9.78131 80.6517 9.78131C82.841 9.78131 84.6772 11.5822 84.6772 14.6543C84.6772 17.7264 82.841 19.4567 80.6517 19.4567ZM80.6517 22.7054C84.995 22.7054 88.4909 19.2448 88.4909 14.619C88.4909 9.99318 85.0303 6.53265 80.6517 6.53265C76.2731 6.53265 72.7772 9.99318 72.7772 14.619C72.7772 19.2448 76.3084 22.7054 80.6517 22.7054ZM59.6766 7.06232V7.38012H64.2671C65.5383 7.38012 67.5864 5.93235 67.5864 3.31929V1.09466H63.8434V3.21336C63.8434 6.00297 61.8306 7.06232 59.6766 7.06232ZM71.6119 7.06232H58.9704V10.2404H63.2431V18.1148C63.2431 20.9751 65.503 22.1757 67.3745 22.1757H72.3182V18.8917H68.5045C67.7276 18.8917 66.9508 18.468 66.9508 17.3733V10.2404H71.6119V7.06232ZM48.0944 0V22.1757H51.7668V0H48.0944ZM38.6662 19.4567C36.4769 19.4567 34.6054 17.7264 34.6054 14.6543C34.6054 11.5822 36.4769 9.78131 38.6662 9.78131C40.8555 9.78131 42.6917 11.5822 42.6917 14.6543C42.6917 17.7264 40.8555 19.4567 38.6662 19.4567ZM38.6662 22.7054C43.0095 22.7054 46.5054 19.2448 46.5054 14.619C46.5054 9.99318 43.0448 6.53265 38.6662 6.53265C34.2876 6.53265 30.7917 9.99318 30.7917 14.619C30.7917 19.2448 34.3229 22.7054 38.6662 22.7054ZM21.6813 19.4567C19.492 19.4567 17.6205 17.7264 17.6205 14.6543C17.6205 11.5822 19.492 9.78131 21.6813 9.78131C23.8706 9.78131 25.7068 11.5822 25.7068 14.6543C25.7068 17.7264 23.8706 19.4567 21.6813 19.4567ZM21.6813 22.7054C26.0246 22.7054 29.5205 19.2448 29.5205 14.619C29.5205 9.99318 26.06 6.53265 21.6813 6.53265C17.3027 6.53265 13.8068 9.99318 13.8068 14.619C13.8068 19.2448 17.338 22.7054 21.6813 22.7054ZM0.706232 7.06232V7.38012H5.29674C6.56796 7.38012 8.61603 5.93235 8.61603 3.31929V1.09466H4.873V3.21336C4.873 6.00297 2.86024 7.06232 0.706232 7.06232ZM12.6416 7.06232H0V10.2404H4.2727V18.1148C4.2727 20.9751 6.53265 22.1757 8.40416 22.1757H13.3478V18.8917H9.53413C8.75728 18.8917 7.98042 18.468 7.98042 17.3733V10.2404H12.6416V7.06232Z" fill="#444444"/>
</svg>
