<svg width="345" height="151" viewBox="0 0 345 151" fill="none" xmlns="http://www.w3.org/2000/svg">
<path d="M320.525 0V147.484H345V0H320.525ZM257.691 129.4C243.1 129.4 230.628 117.893 230.628 97.4614C230.628 77.0297 243.1 65.0525 257.691 65.0525C272.282 65.0525 284.519 77.0297 284.519 97.4614C284.519 117.893 272.282 129.4 257.691 129.4ZM257.691 151.006C286.637 151.006 309.935 127.991 309.935 97.2265C309.935 66.4616 286.872 43.4466 257.691 43.4466C228.51 43.4466 205.211 66.4616 205.211 97.2265C205.211 127.991 228.745 151.006 257.691 151.006ZM144.495 129.4C129.905 129.4 117.432 117.893 117.432 97.4614C117.432 77.0297 129.905 65.0525 144.495 65.0525C159.086 65.0525 171.323 77.0297 171.323 97.4614C171.323 117.893 159.086 129.4 144.495 129.4ZM144.495 151.006C173.441 151.006 196.739 127.991 196.739 97.2265C196.739 66.4616 173.677 43.4466 144.495 43.4466C115.314 43.4466 92.0157 66.4616 92.0157 97.2265C92.0157 127.991 115.549 151.006 144.495 151.006ZM4.70669 46.9693V49.0829H35.3001C43.7722 49.0829 57.4216 39.4542 57.4216 22.0756V7.28025H32.4761V21.371C32.4761 39.9239 19.0621 46.9693 4.70669 46.9693ZM84.2497 46.9693H0V68.1055H28.4754V120.476C28.4754 139.499 43.5368 147.484 56.0096 147.484H88.9564V125.643H63.5403C58.3629 125.643 53.1855 122.825 53.1855 115.545V68.1055H84.2497V46.9693Z" fill="#EFEFEF"/>
</svg>
