<svg width="1433" height="294" viewBox="0 0 1433 294" fill="none" xmlns="http://www.w3.org/2000/svg">
<path d="M1385.48 0V286.966H1433V0H1385.48ZM1263.47 251.78C1235.14 251.78 1210.92 229.39 1210.92 189.635C1210.92 149.88 1235.14 126.576 1263.47 126.576C1291.8 126.576 1315.56 149.88 1315.56 189.635C1315.56 229.39 1291.8 251.78 1263.47 251.78ZM1263.47 293.82C1319.68 293.82 1364.91 249.039 1364.91 189.178C1364.91 129.317 1320.13 84.536 1263.47 84.536C1206.81 84.536 1161.57 129.317 1161.57 189.178C1161.57 249.039 1207.27 293.82 1263.47 293.82ZM1043.68 251.78C1015.35 251.78 991.128 229.39 991.128 189.635C991.128 149.88 1015.35 126.576 1043.68 126.576C1072.01 126.576 1095.77 149.88 1095.77 189.635C1095.77 229.39 1072.01 251.78 1043.68 251.78ZM1043.68 293.82C1099.88 293.82 1145.12 249.039 1145.12 189.178C1145.12 129.317 1100.34 84.536 1043.68 84.536C987.015 84.536 941.777 129.317 941.777 189.178C941.777 249.039 987.472 293.82 1043.68 293.82ZM772.248 91.3903V95.5029H831.652C848.102 95.5029 874.605 76.7679 874.605 42.9534V14.1655H826.168V41.5826C826.168 77.6818 800.122 91.3903 772.248 91.3903ZM926.698 91.3903H763.109V132.516H818.4V234.416C818.4 271.429 847.645 286.966 871.864 286.966H935.837V244.469H886.486C876.433 244.469 866.38 238.986 866.38 224.82V132.516H926.698V91.3903ZM622.368 0V286.966H669.891V0H622.368ZM500.362 251.78C472.031 251.78 447.812 229.39 447.812 189.635C447.812 149.88 472.031 126.576 500.362 126.576C528.693 126.576 552.454 149.88 552.454 189.635C552.454 229.39 528.693 251.78 500.362 251.78ZM500.362 293.82C556.567 293.82 601.805 249.039 601.805 189.178C601.805 129.317 557.024 84.536 500.362 84.536C443.7 84.536 398.462 129.317 398.462 189.178C398.462 249.039 444.157 293.82 500.362 293.82ZM280.568 251.78C252.237 251.78 228.019 229.39 228.019 189.635C228.019 149.88 252.237 126.576 280.568 126.576C308.899 126.576 332.661 149.88 332.661 189.635C332.661 229.39 308.899 251.78 280.568 251.78ZM280.568 293.82C336.773 293.82 382.011 249.039 382.011 189.178C382.011 129.317 337.23 84.536 280.568 84.536C223.906 84.536 178.668 129.317 178.668 189.178C178.668 249.039 224.363 293.82 280.568 293.82ZM9.13903 91.3903V95.5029H68.5427C84.993 95.5029 111.496 76.7679 111.496 42.9534V14.1655H63.0593V41.5826C63.0593 77.6818 37.0131 91.3903 9.13903 91.3903ZM163.589 91.3903H0V132.516H55.2911V234.416C55.2911 271.429 84.536 286.966 108.754 286.966H172.728V244.469H123.377C113.324 244.469 103.271 238.986 103.271 224.82V132.516H163.589V91.3903Z" fill="#EFEFEF"/>
</svg>
